<svg width="69" height="25" viewBox="0 0 69 25" fill="none" xmlns="http://www.w3.org/2000/svg">
<path d="M31.9457 18.0135C30.8121 18.0135 29.8369 17.7827 29.0216 17.3212C28.2064 16.8597 27.5781 16.2045 27.1368 15.3539C26.6972 14.505 26.4766 13.4977 26.4766 12.3355C26.4766 11.1733 26.6972 10.2065 27.1368 9.34914C27.5764 8.49349 28.198 7.8248 28.9997 7.34644C29.8015 6.86809 30.743 6.62891 31.8244 6.62891C32.552 6.62891 33.2291 6.74513 33.8591 6.97757C34.489 7.21001 35.0381 7.55867 35.5098 8.02187C35.9814 8.48675 36.3486 9.06785 36.6113 9.77023C36.8741 10.4709 37.0055 11.2912 37.0055 12.2294V13.0699H27.696V11.175H34.1269C34.1269 10.7354 34.0309 10.3446 33.8389 10.0044C33.6469 9.66412 33.3824 9.39799 33.0455 9.20429C32.7087 9.01059 32.3162 8.91289 31.8716 8.91289C31.4269 8.91289 30.9974 9.01901 30.6403 9.23292C30.2832 9.44515 30.0053 9.73149 29.8048 10.0869C29.6044 10.444 29.5017 10.8398 29.4966 11.2744V13.0766C29.4966 13.6224 29.5977 14.094 29.8015 14.4898C30.0053 14.8873 30.2933 15.1939 30.6656 15.4078C31.0378 15.6217 31.4808 15.7312 31.9928 15.7312C32.3331 15.7312 32.643 15.684 32.926 15.588C33.2089 15.492 33.4498 15.3488 33.6502 15.1568C33.8507 14.9648 34.0039 14.7307 34.1101 14.4527L36.9381 14.6397C36.7949 15.3185 36.5018 15.9114 36.0589 16.4167C35.6159 16.922 35.0466 17.3145 34.3509 17.5941C33.6553 17.8737 32.8518 18.0135 31.9423 18.0135H31.9457Z" fill="#0D0D0D"/>
<path d="M41.0493 3.09766V17.797H37.9922V3.09766H41.0493Z" fill="#0D0D0D"/>
<path d="M42.4782 21.9313V6.77208H45.4932V8.62318H45.6297C45.7627 8.32674 45.9581 8.02355 46.2141 7.71532C46.4702 7.40708 46.8054 7.14769 47.2197 6.94051C47.6341 6.73334 48.1495 6.62891 48.7659 6.62891C49.5694 6.62891 50.3122 6.83777 50.991 7.25717C51.6698 7.67658 52.2138 8.30484 52.6198 9.14533C53.0257 9.98583 53.2295 11.0369 53.2295 12.3001C53.2295 13.5634 53.0324 14.5673 52.6366 15.4111C52.2425 16.255 51.7051 16.8951 51.028 17.3279C50.3509 17.7608 49.593 17.9781 48.7558 17.9781C48.1629 17.9781 47.6593 17.8804 47.245 17.6833C46.8306 17.4879 46.4921 17.2403 46.2293 16.9405C45.9665 16.6407 45.7644 16.3392 45.6263 16.0327H45.5337V21.933H42.4766L42.4782 21.9313ZM45.4713 12.285C45.4713 12.9402 45.5623 13.5129 45.7442 13.9996C45.9261 14.4881 46.1889 14.8671 46.5342 15.1366C46.8795 15.4078 47.2972 15.5425 47.7907 15.5425C48.2842 15.5425 48.7104 15.4044 49.054 15.1299C49.3993 14.8553 49.6603 14.4713 49.8406 13.9811C50.0191 13.491 50.1101 12.925 50.1101 12.2833C50.1101 11.6416 50.0208 11.0874 49.8439 10.604C49.6671 10.1206 49.406 9.74328 49.0624 9.47041C48.7171 9.19755 48.2943 9.06112 47.7924 9.06112C47.2905 9.06112 46.8744 9.1925 46.5325 9.45526C46.1906 9.71801 45.9278 10.0919 45.7459 10.5754C45.564 11.0588 45.473 11.6281 45.473 12.2833L45.4713 12.285Z" fill="#0D0D0D"/>
<path d="M55.7874 5.35366C55.3326 5.35366 54.9435 5.20206 54.6218 4.8972C54.2984 4.59401 54.1367 4.22851 54.1367 3.80236C54.1367 3.37622 54.2984 3.01914 54.6218 2.71427C54.9452 2.41109 55.3343 2.25781 55.7874 2.25781C56.2405 2.25781 56.6312 2.4094 56.953 2.71427C57.2764 3.01746 57.4381 3.38127 57.4381 3.80236C57.4381 4.22345 57.2764 4.59233 56.953 4.8972C56.6296 5.20038 56.2405 5.35366 55.7874 5.35366ZM54.2513 17.7994V6.77526H57.3084V17.7994H54.2513Z" fill="#0D0D0D"/>
<path d="M67.912 9.91899L65.1126 10.0908C65.0638 9.85162 64.961 9.63433 64.8044 9.44063C64.6477 9.24693 64.4389 9.09197 64.1828 8.97407C63.9268 8.85616 63.622 8.79889 63.2682 8.79889C62.7949 8.79889 62.3957 8.89827 62.069 9.09703C61.7439 9.29578 61.5805 9.56022 61.5805 9.89036C61.5805 10.1531 61.6849 10.3754 61.8972 10.5574C62.1077 10.7393 62.4682 10.8858 62.9819 10.9953L64.9779 11.3979C66.0491 11.6185 66.8492 11.9722 67.3747 12.4607C67.9002 12.9491 68.1647 13.5909 68.1647 14.3842C68.1647 15.1068 67.9524 15.7401 67.5297 16.2859C67.1069 16.8316 66.5275 17.256 65.7931 17.5592C65.0587 17.8624 64.2132 18.0157 63.2564 18.0157C61.7961 18.0157 60.6356 17.7108 59.7715 17.1011C58.9074 16.4913 58.4021 15.6593 58.2539 14.6066L61.2622 14.4482C61.3531 14.8929 61.5738 15.2314 61.9224 15.4639C62.2711 15.6963 62.7191 15.8126 63.2649 15.8126C63.8106 15.8126 64.2334 15.7081 64.5601 15.5009C64.8886 15.2921 65.0536 15.0243 65.0587 14.6941C65.0536 14.4162 64.9374 14.1888 64.7067 14.0086C64.4776 13.8301 64.1222 13.6919 63.6438 13.5959L61.7355 13.2153C60.6592 12.9997 59.8591 12.6274 59.3353 12.0952C58.8114 11.5646 58.5487 10.8875 58.5487 10.0638C58.5487 9.35641 58.7407 8.74499 59.1264 8.23295C59.5121 7.72091 60.0545 7.32677 60.7552 7.04885C61.4559 6.77093 62.2778 6.63281 63.2211 6.63281C64.614 6.63281 65.7105 6.92757 66.5123 7.51541C67.3141 8.10325 67.7823 8.90501 67.9154 9.92067L67.912 9.91899Z" fill="#0D0D0D"/>
<path d="M57.5034 18.9609V23.8607H56.4844V18.9609H57.5034Z" fill="#0D0D0D"/>
<path d="M59.0281 23.9327C58.7939 23.9327 58.5851 23.8922 58.4015 23.8097C58.2179 23.7272 58.073 23.6059 57.9669 23.4442C57.8608 23.2825 57.8086 23.0804 57.8086 22.8378C57.8086 22.634 57.8457 22.4622 57.9214 22.3241C57.9972 22.186 58.0983 22.0731 58.228 21.9889C58.3577 21.9047 58.5042 21.8407 58.6693 21.7969C58.8344 21.7531 59.0079 21.7228 59.1898 21.7059C59.4037 21.684 59.5755 21.6621 59.7069 21.6419C59.8382 21.6217 59.9326 21.5914 59.9915 21.5527C60.0505 21.5122 60.0808 21.4533 60.0808 21.3758V21.3623C60.0808 21.2107 60.0336 21.0928 59.9393 21.0103C59.845 20.9278 59.7102 20.8856 59.5367 20.8856C59.3531 20.8856 59.2066 20.9261 59.0988 21.0069C58.991 21.0878 58.9186 21.1888 58.8832 21.3101L57.94 21.2343C57.9871 21.0103 58.0815 20.8183 58.2229 20.6549C58.3627 20.4915 58.5447 20.3652 58.767 20.2776C58.9893 20.1883 59.247 20.1445 59.5401 20.1445C59.7439 20.1445 59.9393 20.1681 60.1279 20.217C60.3149 20.2641 60.4817 20.3382 60.6282 20.4393C60.7747 20.5404 60.8893 20.6684 60.9735 20.825C61.0577 20.9817 61.0998 21.1703 61.0998 21.3893V23.8686H60.133V23.3583H60.1044C60.0454 23.4728 59.9663 23.5739 59.8669 23.6615C59.7675 23.749 59.6496 23.8164 59.5098 23.8653C59.3717 23.9141 59.21 23.9377 59.0281 23.9377V23.9327ZM59.3195 23.2286C59.4694 23.2286 59.6024 23.1983 59.717 23.1393C59.8315 23.0804 59.9225 22.9978 59.9882 22.8968C60.0538 22.794 60.0858 22.6795 60.0858 22.5498V22.159C60.0538 22.1792 60.01 22.1978 59.9561 22.2146C59.9006 22.2314 59.8399 22.2466 59.7709 22.2601C59.7018 22.2736 59.6344 22.2853 59.5654 22.2955C59.4963 22.3056 59.434 22.3157 59.3784 22.3224C59.2588 22.3392 59.1544 22.3679 59.0651 22.4066C58.9759 22.4454 58.9068 22.4959 58.8563 22.5616C58.8074 22.6256 58.7822 22.7064 58.7822 22.8024C58.7822 22.9406 58.8327 23.0467 58.9337 23.1191C59.0348 23.1915 59.1645 23.2286 59.3195 23.2286Z" fill="#0D0D0D"/>
<path d="M61.572 23.8607V18.9609H62.591V20.8036H62.6214C62.6651 20.7042 62.7308 20.6032 62.8167 20.5004C62.9026 20.3977 63.0138 20.3118 63.1519 20.2427C63.29 20.1737 63.4618 20.1383 63.6673 20.1383C63.9352 20.1383 64.1827 20.2074 64.4085 20.3472C64.6342 20.487 64.8161 20.6958 64.9508 20.9771C65.0856 21.2584 65.1546 21.6071 65.1546 22.0281C65.1546 22.4492 65.0889 22.7844 64.9576 23.0657C64.8262 23.347 64.6476 23.5609 64.4219 23.7041C64.1962 23.8473 63.9436 23.9214 63.664 23.9214C63.4669 23.9214 63.2985 23.8894 63.1603 23.8237C63.0222 23.758 62.9094 23.6754 62.8218 23.5761C62.7342 23.4767 62.6668 23.3756 62.6214 23.2729H62.5759V23.8607H61.5703H61.572ZM62.5691 22.0231C62.5691 22.2421 62.5995 22.4324 62.6601 22.5958C62.7207 22.7592 62.8083 22.8855 62.9229 22.9748C63.0374 23.0657 63.1772 23.1095 63.3423 23.1095C63.5073 23.1095 63.6488 23.064 63.7633 22.9714C63.8779 22.8788 63.9655 22.7524 64.0261 22.589C64.0851 22.4257 64.1154 22.237 64.1154 22.0231C64.1154 21.8092 64.0867 21.6239 64.0261 21.4639C63.9655 21.3039 63.8796 21.1775 63.765 21.0866C63.6505 20.9956 63.509 20.9502 63.3423 20.9502C63.1755 20.9502 63.0357 20.994 62.9229 21.0815C62.8083 21.1691 62.7207 21.2938 62.6618 21.4555C62.6011 21.6172 62.5708 21.8058 62.5708 22.0248L62.5691 22.0231Z" fill="#0D0D0D"/>
<path d="M68.552 21.2332L67.6188 21.2905C67.6037 21.2113 67.5683 21.1389 67.5161 21.0732C67.4639 21.0092 67.3948 20.957 67.3089 20.9183C67.223 20.8795 67.122 20.8593 67.0041 20.8593C66.8457 20.8593 66.7127 20.893 66.6049 20.9587C66.4971 21.0244 66.4415 21.1136 66.4415 21.2231C66.4415 21.3107 66.4769 21.3848 66.5459 21.4455C66.6167 21.5061 66.7362 21.5549 66.9064 21.592L67.5717 21.7268C67.9288 21.8009 68.1949 21.9188 68.3701 22.0805C68.5452 22.2438 68.6328 22.4578 68.6328 22.7222C68.6328 22.9631 68.5621 23.1736 68.4206 23.3555C68.2791 23.5374 68.0871 23.6789 67.8412 23.78C67.597 23.881 67.314 23.9316 66.9956 23.9316C66.5089 23.9316 66.1215 23.8305 65.8334 23.6267C65.5454 23.4229 65.377 23.1467 65.3281 22.7946L66.3303 22.7424C66.3606 22.8906 66.4347 23.0035 66.551 23.081C66.6672 23.1584 66.8171 23.1972 66.999 23.1972C67.1809 23.1972 67.3224 23.1618 67.4302 23.0928C67.5397 23.0237 67.5953 22.9344 67.597 22.8233C67.597 22.7306 67.5565 22.6548 67.4791 22.5942C67.4033 22.5352 67.2837 22.4881 67.1253 22.4561L66.4886 22.3297C66.1299 22.2573 65.8638 22.1327 65.6886 21.9558C65.5134 21.779 65.4258 21.5533 65.4258 21.2787C65.4258 21.0429 65.4898 20.8391 65.6178 20.669C65.7458 20.4989 65.9278 20.3675 66.1602 20.2748C66.3943 20.1822 66.6672 20.1367 66.9822 20.1367C67.447 20.1367 67.8126 20.2344 68.0787 20.4315C68.3465 20.6269 68.5015 20.8947 68.5469 21.2332H68.552Z" fill="#0D0D0D"/>
<path d="M17.7266 11.5196C20.8699 11.5196 23.418 8.97145 23.418 5.82815C23.418 2.68486 20.8699 0.136719 17.7266 0.136719C14.5833 0.136719 12.0352 2.68486 12.0352 5.82815C12.0352 8.97145 14.5833 11.5196 17.7266 11.5196Z" fill="#E6A522"/>
<path d="M6.543 17.9766C9.68629 17.9766 12.2344 15.4285 12.2344 12.2852C12.2344 9.1419 9.68629 6.59375 6.543 6.59375C3.39971 6.59375 0.851562 9.1419 0.851562 12.2852C0.851562 15.4285 3.39971 17.9766 6.543 17.9766Z" fill="#12B347"/>
<path d="M17.7266 24.4337C20.8699 24.4337 23.418 21.8855 23.418 18.7422C23.418 15.5989 20.8699 13.0508 17.7266 13.0508C14.5833 13.0508 12.0352 15.5989 12.0352 18.7422C12.0352 21.8855 14.5833 24.4337 17.7266 24.4337Z" fill="#9161F2"/>
</svg>
